<mxfile host="app.diagrams.net" modified="2023-12-12T15:25:58.283Z" agent="Mozilla/5.0 (Macintosh; Intel Mac OS X 10_15_7) AppleWebKit/605.1.15 (KHTML, like Gecko) Version/16.6 Safari/605.1.15" version="22.1.7" etag="WqNnjncR2YaMEIpLTgen" type="github">
  <diagram name="第 1 页" id="DmtsUJWvZThlnF4pOxAo">
    <mxGraphModel>
      <root>
        <mxCell id="0" />
        <mxCell id="1" parent="0" />
      </root>
    </mxGraphModel>
  </diagram>
</mxfile>
